<mxfile host="app.diagrams.net" agent="Mozilla/5.0 (Windows NT 10.0; Win64; x64) AppleWebKit/537.36 (KHTML, like Gecko) Chrome/126.0.0.0 YaBrowser/24.7.0.0 Safari/537.36" version="24.7.14">
  <diagram name="Страница — 1" id="lbRT3Q3-sk2wGCuVsWDj">
    <mxGraphModel dx="1386" dy="791" grid="1" gridSize="10" guides="1" tooltips="1" connect="1" arrows="1" fold="1" page="1" pageScale="1" pageWidth="827" pageHeight="1169" math="0" shadow="0">
      <root>
        <mxCell id="0" />
        <mxCell id="1" parent="0" />
        <mxCell id="kYqAOzDBR5ppZm0ygcky-1" value="1" style="ellipse;whiteSpace=wrap;html=1;aspect=fixed;" vertex="1" parent="1">
          <mxGeometry x="390" y="110" width="30" height="30" as="geometry" />
        </mxCell>
        <mxCell id="kYqAOzDBR5ppZm0ygcky-2" value="3" style="ellipse;whiteSpace=wrap;html=1;aspect=fixed;" vertex="1" parent="1">
          <mxGeometry x="330" y="200" width="30" height="30" as="geometry" />
        </mxCell>
        <mxCell id="kYqAOzDBR5ppZm0ygcky-3" value="2" style="ellipse;whiteSpace=wrap;html=1;aspect=fixed;fillColor=#CCCCCC;" vertex="1" parent="1">
          <mxGeometry x="390" y="170" width="30" height="30" as="geometry" />
        </mxCell>
        <mxCell id="kYqAOzDBR5ppZm0ygcky-4" value="4" style="ellipse;whiteSpace=wrap;html=1;aspect=fixed;" vertex="1" parent="1">
          <mxGeometry x="390" y="230" width="30" height="30" as="geometry" />
        </mxCell>
        <mxCell id="kYqAOzDBR5ppZm0ygcky-5" value="" style="endArrow=classic;html=1;rounded=0;" edge="1" parent="1" source="kYqAOzDBR5ppZm0ygcky-1" target="kYqAOzDBR5ppZm0ygcky-3">
          <mxGeometry width="50" height="50" relative="1" as="geometry">
            <mxPoint x="400" y="370" as="sourcePoint" />
            <mxPoint x="450" y="320" as="targetPoint" />
          </mxGeometry>
        </mxCell>
        <mxCell id="kYqAOzDBR5ppZm0ygcky-6" value="" style="endArrow=classic;html=1;rounded=0;" edge="1" parent="1" source="kYqAOzDBR5ppZm0ygcky-3" target="kYqAOzDBR5ppZm0ygcky-2">
          <mxGeometry width="50" height="50" relative="1" as="geometry">
            <mxPoint x="400" y="370" as="sourcePoint" />
            <mxPoint x="450" y="320" as="targetPoint" />
          </mxGeometry>
        </mxCell>
        <mxCell id="kYqAOzDBR5ppZm0ygcky-7" value="" style="endArrow=classic;html=1;rounded=0;" edge="1" parent="1" source="kYqAOzDBR5ppZm0ygcky-3" target="kYqAOzDBR5ppZm0ygcky-4">
          <mxGeometry width="50" height="50" relative="1" as="geometry">
            <mxPoint x="400" y="370" as="sourcePoint" />
            <mxPoint x="450" y="320" as="targetPoint" />
          </mxGeometry>
        </mxCell>
        <mxCell id="kYqAOzDBR5ppZm0ygcky-8" value="" style="endArrow=classic;html=1;rounded=0;" edge="1" parent="1" source="kYqAOzDBR5ppZm0ygcky-2" target="kYqAOzDBR5ppZm0ygcky-4">
          <mxGeometry width="50" height="50" relative="1" as="geometry">
            <mxPoint x="415" y="210" as="sourcePoint" />
            <mxPoint x="415" y="240" as="targetPoint" />
          </mxGeometry>
        </mxCell>
        <mxCell id="kYqAOzDBR5ppZm0ygcky-9" value="6" style="ellipse;whiteSpace=wrap;html=1;aspect=fixed;" vertex="1" parent="1">
          <mxGeometry x="330" y="320" width="30" height="30" as="geometry" />
        </mxCell>
        <mxCell id="kYqAOzDBR5ppZm0ygcky-10" value="5" style="ellipse;whiteSpace=wrap;html=1;aspect=fixed;fillColor=#CCCCCC;" vertex="1" parent="1">
          <mxGeometry x="390" y="290" width="30" height="30" as="geometry" />
        </mxCell>
        <mxCell id="kYqAOzDBR5ppZm0ygcky-11" value="7" style="ellipse;whiteSpace=wrap;html=1;aspect=fixed;" vertex="1" parent="1">
          <mxGeometry x="390" y="350" width="30" height="30" as="geometry" />
        </mxCell>
        <mxCell id="kYqAOzDBR5ppZm0ygcky-12" value="" style="endArrow=classic;html=1;rounded=0;" edge="1" parent="1" target="kYqAOzDBR5ppZm0ygcky-10">
          <mxGeometry width="50" height="50" relative="1" as="geometry">
            <mxPoint x="405" y="260" as="sourcePoint" />
            <mxPoint x="450" y="440" as="targetPoint" />
          </mxGeometry>
        </mxCell>
        <mxCell id="kYqAOzDBR5ppZm0ygcky-13" value="" style="endArrow=classic;html=1;rounded=0;" edge="1" parent="1" source="kYqAOzDBR5ppZm0ygcky-10" target="kYqAOzDBR5ppZm0ygcky-9">
          <mxGeometry width="50" height="50" relative="1" as="geometry">
            <mxPoint x="400" y="490" as="sourcePoint" />
            <mxPoint x="450" y="440" as="targetPoint" />
          </mxGeometry>
        </mxCell>
        <mxCell id="kYqAOzDBR5ppZm0ygcky-14" value="" style="endArrow=classic;html=1;rounded=0;" edge="1" parent="1" source="kYqAOzDBR5ppZm0ygcky-10" target="kYqAOzDBR5ppZm0ygcky-11">
          <mxGeometry width="50" height="50" relative="1" as="geometry">
            <mxPoint x="400" y="490" as="sourcePoint" />
            <mxPoint x="450" y="440" as="targetPoint" />
          </mxGeometry>
        </mxCell>
        <mxCell id="kYqAOzDBR5ppZm0ygcky-15" value="" style="endArrow=classic;html=1;rounded=0;" edge="1" parent="1" source="kYqAOzDBR5ppZm0ygcky-9" target="kYqAOzDBR5ppZm0ygcky-11">
          <mxGeometry width="50" height="50" relative="1" as="geometry">
            <mxPoint x="415" y="330" as="sourcePoint" />
            <mxPoint x="415" y="360" as="targetPoint" />
          </mxGeometry>
        </mxCell>
        <mxCell id="kYqAOzDBR5ppZm0ygcky-16" value="8" style="ellipse;whiteSpace=wrap;html=1;aspect=fixed;" vertex="1" parent="1">
          <mxGeometry x="390" y="410" width="30" height="30" as="geometry" />
        </mxCell>
        <mxCell id="kYqAOzDBR5ppZm0ygcky-17" value="" style="endArrow=classic;html=1;rounded=0;" edge="1" parent="1" source="kYqAOzDBR5ppZm0ygcky-11" target="kYqAOzDBR5ppZm0ygcky-16">
          <mxGeometry width="50" height="50" relative="1" as="geometry">
            <mxPoint x="460" y="410" as="sourcePoint" />
            <mxPoint x="460" y="440" as="targetPoint" />
          </mxGeometry>
        </mxCell>
        <mxCell id="kYqAOzDBR5ppZm0ygcky-18" value="9" style="ellipse;whiteSpace=wrap;html=1;aspect=fixed;fillColor=#CCCCCC;" vertex="1" parent="1">
          <mxGeometry x="390" y="470" width="30" height="30" as="geometry" />
        </mxCell>
        <mxCell id="kYqAOzDBR5ppZm0ygcky-19" value="" style="endArrow=classic;html=1;rounded=0;" edge="1" parent="1" target="kYqAOzDBR5ppZm0ygcky-18" source="kYqAOzDBR5ppZm0ygcky-16">
          <mxGeometry width="50" height="50" relative="1" as="geometry">
            <mxPoint x="405" y="440" as="sourcePoint" />
            <mxPoint x="460" y="500" as="targetPoint" />
          </mxGeometry>
        </mxCell>
        <mxCell id="kYqAOzDBR5ppZm0ygcky-20" value="" style="endArrow=classic;html=1;rounded=0;" edge="1" parent="1" source="kYqAOzDBR5ppZm0ygcky-18" target="kYqAOzDBR5ppZm0ygcky-31">
          <mxGeometry width="50" height="50" relative="1" as="geometry">
            <mxPoint x="400" y="580" as="sourcePoint" />
            <mxPoint x="560" y="720" as="targetPoint" />
            <Array as="points">
              <mxPoint x="560" y="485" />
              <mxPoint x="560" y="725" />
            </Array>
          </mxGeometry>
        </mxCell>
        <mxCell id="kYqAOzDBR5ppZm0ygcky-21" value="13" style="ellipse;whiteSpace=wrap;html=1;aspect=fixed;" vertex="1" parent="1">
          <mxGeometry x="330" y="620" width="30" height="30" as="geometry" />
        </mxCell>
        <mxCell id="kYqAOzDBR5ppZm0ygcky-22" value="12" style="ellipse;whiteSpace=wrap;html=1;aspect=fixed;fillColor=#CCCCCC;" vertex="1" parent="1">
          <mxGeometry x="390" y="590" width="30" height="30" as="geometry" />
        </mxCell>
        <mxCell id="kYqAOzDBR5ppZm0ygcky-23" value="10" style="ellipse;whiteSpace=wrap;html=1;aspect=fixed;" vertex="1" parent="1">
          <mxGeometry x="390" y="650" width="30" height="30" as="geometry" />
        </mxCell>
        <mxCell id="kYqAOzDBR5ppZm0ygcky-24" value="" style="endArrow=classic;html=1;rounded=0;" edge="1" parent="1" target="kYqAOzDBR5ppZm0ygcky-22" source="kYqAOzDBR5ppZm0ygcky-28">
          <mxGeometry width="50" height="50" relative="1" as="geometry">
            <mxPoint x="405" y="560" as="sourcePoint" />
            <mxPoint x="450" y="740" as="targetPoint" />
          </mxGeometry>
        </mxCell>
        <mxCell id="kYqAOzDBR5ppZm0ygcky-25" value="" style="endArrow=classic;html=1;rounded=0;" edge="1" parent="1" source="kYqAOzDBR5ppZm0ygcky-22" target="kYqAOzDBR5ppZm0ygcky-21">
          <mxGeometry width="50" height="50" relative="1" as="geometry">
            <mxPoint x="400" y="790" as="sourcePoint" />
            <mxPoint x="450" y="740" as="targetPoint" />
          </mxGeometry>
        </mxCell>
        <mxCell id="kYqAOzDBR5ppZm0ygcky-26" value="" style="endArrow=classic;html=1;rounded=0;" edge="1" parent="1" source="kYqAOzDBR5ppZm0ygcky-22" target="kYqAOzDBR5ppZm0ygcky-23">
          <mxGeometry width="50" height="50" relative="1" as="geometry">
            <mxPoint x="400" y="790" as="sourcePoint" />
            <mxPoint x="450" y="740" as="targetPoint" />
          </mxGeometry>
        </mxCell>
        <mxCell id="kYqAOzDBR5ppZm0ygcky-27" value="" style="endArrow=classic;html=1;rounded=0;" edge="1" parent="1" source="kYqAOzDBR5ppZm0ygcky-21" target="kYqAOzDBR5ppZm0ygcky-23">
          <mxGeometry width="50" height="50" relative="1" as="geometry">
            <mxPoint x="415" y="630" as="sourcePoint" />
            <mxPoint x="415" y="660" as="targetPoint" />
          </mxGeometry>
        </mxCell>
        <mxCell id="kYqAOzDBR5ppZm0ygcky-28" value="11" style="ellipse;whiteSpace=wrap;html=1;aspect=fixed;" vertex="1" parent="1">
          <mxGeometry x="390" y="530" width="30" height="30" as="geometry" />
        </mxCell>
        <mxCell id="kYqAOzDBR5ppZm0ygcky-29" value="" style="endArrow=classic;html=1;rounded=0;" edge="1" parent="1" target="kYqAOzDBR5ppZm0ygcky-28" source="kYqAOzDBR5ppZm0ygcky-18">
          <mxGeometry width="50" height="50" relative="1" as="geometry">
            <mxPoint x="405" y="490" as="sourcePoint" />
            <mxPoint x="460" y="560" as="targetPoint" />
          </mxGeometry>
        </mxCell>
        <mxCell id="kYqAOzDBR5ppZm0ygcky-30" value="15" style="ellipse;whiteSpace=wrap;html=1;aspect=fixed;" vertex="1" parent="1">
          <mxGeometry x="360" y="780" width="30" height="30" as="geometry" />
        </mxCell>
        <mxCell id="kYqAOzDBR5ppZm0ygcky-31" value="14" style="ellipse;whiteSpace=wrap;html=1;aspect=fixed;fillColor=#CCCCCC;" vertex="1" parent="1">
          <mxGeometry x="390" y="710" width="30" height="30" as="geometry" />
        </mxCell>
        <mxCell id="kYqAOzDBR5ppZm0ygcky-32" value="16" style="ellipse;whiteSpace=wrap;html=1;aspect=fixed;" vertex="1" parent="1">
          <mxGeometry x="420" y="780" width="30" height="30" as="geometry" />
        </mxCell>
        <mxCell id="kYqAOzDBR5ppZm0ygcky-34" value="" style="endArrow=classic;html=1;rounded=0;" edge="1" parent="1" source="kYqAOzDBR5ppZm0ygcky-31" target="kYqAOzDBR5ppZm0ygcky-30">
          <mxGeometry width="50" height="50" relative="1" as="geometry">
            <mxPoint x="400" y="910" as="sourcePoint" />
            <mxPoint x="450" y="860" as="targetPoint" />
          </mxGeometry>
        </mxCell>
        <mxCell id="kYqAOzDBR5ppZm0ygcky-35" value="" style="endArrow=classic;html=1;rounded=0;" edge="1" parent="1" source="kYqAOzDBR5ppZm0ygcky-31" target="kYqAOzDBR5ppZm0ygcky-32">
          <mxGeometry width="50" height="50" relative="1" as="geometry">
            <mxPoint x="400" y="910" as="sourcePoint" />
            <mxPoint x="450" y="860" as="targetPoint" />
          </mxGeometry>
        </mxCell>
        <mxCell id="kYqAOzDBR5ppZm0ygcky-37" value="" style="endArrow=classic;html=1;rounded=0;" edge="1" parent="1" source="kYqAOzDBR5ppZm0ygcky-23" target="kYqAOzDBR5ppZm0ygcky-18">
          <mxGeometry width="50" height="50" relative="1" as="geometry">
            <mxPoint x="300" y="670" as="sourcePoint" />
            <mxPoint x="210" y="480" as="targetPoint" />
            <Array as="points">
              <mxPoint x="210" y="665" />
              <mxPoint x="210" y="485" />
            </Array>
          </mxGeometry>
        </mxCell>
      </root>
    </mxGraphModel>
  </diagram>
</mxfile>
